<?xml version="1.0" encoding="UTF-8"?>
<svg id="Layer_1" data-name="Layer 1" xmlns="http://www.w3.org/2000/svg" viewBox="0 0 371.84 126.96">
  <defs>
    <style>
      .cls-1 {
        fill: #be1e2d;
        stroke: #231f20;
        stroke-miterlimit: 10;
        stroke-width: 5px;
      }
    </style>
  </defs>
  <path class="cls-1" d="M43.55,119c-1.19-.55-1.88-1.08-2.07-1.57-.4-.98-.59-3.26-.59-6.83v-4.33c-6.56-3.85-12.7-8.31-18.22-13.43v17.76c0,3.45-.17,5.57-.52,6.37-.35.8-1.09,1.48-2.22,2.03-1.14.56-3.26,1.02-6.37,1.39-3.11.37-6.79-2.94-11.04.55v1.84c0,3.03,6.86-1.69,16.02,0,9.15,0,20.59,0,29.75,0,9.15,0,16.02,0,16.02,0v-1.84c-5.83,0-10.44-.18-13.85-.55-3.41-.37-5.7-.83-6.89-1.39Z"/>
  <path class="cls-1" d="M94.06,3.99H2.5v1.66c3.95,0,7.58.25,10.89.74,3.31.49,5.53.99,6.67,1.48,1.13.49,1.8.98,2,1.48.39.86.59,3.08.59,6.65v62.33c5.26,6.26,11.44,11.62,18.23,16.18v-33.41c11,0,17.93,1.35,20.78,4.05,4.52,4.18,6.78,14.55,6.78,31.13h1.78s0-72.56,0-72.56h-1.78c-1.18,16.94-3.83,27.51-7.96,31.68-2.56,2.58-9.09,3.87-19.6,3.87V16.03c0-4.08.34-6.55,1.03-7.42l1.33-.74c2.66-.99,5.29-1.61,7.9-1.85,2.61-.25,7.11-.37,13.52-.37,9.36,0,16.6,5.73,21.72,17.2,3.84,8.63,5.76,17.69,5.76,27.19h1.93V3.99Z"/>
  <path class="cls-1" d="M104.04,124.43c2.54-.03,4.66-1.1,6.38-3.22,1.74-2.15,2.61-4.82,2.61-8.01s-.87-5.86-2.61-8.01c-1.74-2.15-3.91-3.22-6.5-3.22-2.59,0-4.76,1.08-6.5,3.22-1.74,2.15-2.61,4.82-2.61,8.01,0,2.76.65,5.13,1.95,7.11,3.2-1.26,7.2,1.01,7.28,4.12Z"/>
  <path class="cls-1" d="M149.17,9.15c.39.99.59,3.2.59,6.65v23.97c4.22-2.79,8.75-5.09,13.77-6.63,1.47-.45,2.95-.82,4.45-1.11V15.84c0-3.59.12-5.99.37-7.23.25-1.24.86-2.04,1.85-2.41.98-.37,2.51-.56,4.57-.56h7.08c7.97,0,13.62,2.1,16.97,6.3,3.31,4.16,4.98,11.36,5.01,21.58,6.02.87,12.02,1.89,18.01,2.95.13-1.37.21-2.79.21-4.32,0-6.01-2.52-11.84-7.55-17.49-6.32-7.12-14.82-10.68-25.48-10.68h-60.6v1.66c9.68,0,15.95.68,18.82,2.03,1.09.5,1.73.99,1.93,1.48Z"/>
  <path class="cls-1" d="M194.61,59.41c11.22-2.09,18.85-5.65,22.88-10.68.65-.78,1.22-1.67,1.73-2.62-5.43-.96-10.86-1.89-16.31-2.69-.98,4.42-2.73,7.84-5.26,10.26-3.44,3.34-8.75,5.01-15.93,5.01h-13.72s0-16.4,0-16.4c-.6.15-1.2.31-1.79.5-6.12,1.9-11.49,5.18-16.43,9.18v58.62c0,3.57-.2,5.82-.59,6.74-.4.93-1.09,1.63-2.07,2.12-2.07.99-8.3,1.48-18.67,1.48v1.84h69.04c8.89,0,16.3-3.5,22.22-10.51,5.13-6.01,7.7-12.46,7.7-19.34,0-8.47-2.27-15.41-6.8-20.81-5.52-6.63-14.18-10.87-26-12.71ZM203.83,113.17c-3.47,5.29-8.72,7.94-15.76,7.94-6.74,0-11.03-.06-12.86-.18-1.83-.12-3.32-.46-4.46-1.02-1.14-.55-1.88-1.32-2.23-2.31-.35-.98-.52-3.33-.52-7.02v-50.25s17.54,0,17.54,0c7.73,0,13.58,3.02,17.55,9.05,3.67,5.54,5.5,13.42,5.5,23.64,0,8.62-1.59,15.34-4.76,20.14Z"/>
  <path class="cls-1" d="M243.03,101.96c2.59,0,4.75,1.08,6.5,3.22,1.74,2.15,2.61,4.82,2.61,8.01s-.87,5.86-2.61,8.01c-1.74,2.15-3.91,3.22-6.5,3.22s-4.76-1.08-6.5-3.22c-1.74-2.15-2.61-4.82-2.61-8.01s.87-5.86,2.61-8.01c1.74-2.15,3.91-3.22,6.5-3.22Z"/>
  <path class="cls-1" d="M356,119.54c-1.48-.92-2.96-3.9-4.44-8.95l-2.82-9.52c-5.27,3.23-11.06,5.02-17.09,5.46l2.13,7.37.3,1.85c0,2.1-1.38,3.48-4.15,4.16-2.77.68-7.85,1.02-15.26,1.02v1.84s54.67,0,54.67,0v-1.84c-7.41,0-11.85-.46-13.33-1.38Z"/>
  <path class="cls-1" d="M293.72,88.78l2.09-7.45h28.55s4.4,15.22,4.4,15.22c6.02-.03,11.72-1.54,17.02-5.47L319.55,2.5h-2.96l-24.69,85.49c.6.28,1.21.53,1.82.79ZM310.08,32.41l13.54,46.89h-27.08s13.53-46.89,13.53-46.89Z"/>
  <path class="cls-1" d="M293.63,117.96c-2.77-1.97-4.15-5.24-4.15-9.81,0-2.75.53-6.01,1.55-9.73-.68-.27-1.36-.56-2.04-.85-2.12,6.59-3.94,11.18-5.44,13.77-3.75,6.39-9.04,9.59-15.85,9.59v1.84s37.63,0,37.63,0v-1.84c-5.04,0-8.94-.99-11.71-2.96Z"/>
</svg>